<?xml version="1.0" encoding="UTF-8" standalone="no"?>
<!-- Created with Inkscape (http://www.inkscape.org/) -->

<svg
   id="svg2985"
   version="1.1"
   width="1000"
   height="1100"
   xmlns:xlink="http://www.w3.org/1999/xlink"
   xmlns="http://www.w3.org/2000/svg"
   xmlns:svg="http://www.w3.org/2000/svg"
   xmlns:rdf="http://www.w3.org/1999/02/22-rdf-syntax-ns#"
   xmlns:cc="http://creativecommons.org/ns#"
   xmlns:dc="http://purl.org/dc/elements/1.1/">
  <metadata
     id="metadata2991">
    <rdf:RDF>
      <cc:Work
         rdf:about="">
        <dc:format>image/svg+xml</dc:format>
        <dc:type
           rdf:resource="http://purl.org/dc/dcmitype/StillImage" />
      </cc:Work>
    </rdf:RDF>
  </metadata>
  <defs
     id="defs2989">
    <clipPath
       clipPathUnits="userSpaceOnUse"
       id="clipPath4043">
      <path
         d="m 1004.5,644.5 a 52.5,52.5 0 1 1 -105,0 52.5,52.5 0 1 1 105,0 z"
         id="path4045"
         style="fill:none;stroke:#000000" />
    </clipPath>
  </defs>
  <g
     id="layer2"
     style="display:inline"
     transform="translate(-607.00002,113.99997)">
    <g
       id="g4452"
       transform="matrix(1.4854427,0,0,1.4854427,-294.6637,-478.64647)">
      <path
         id="path3015"
         d="m 607,986.00002 0,-740.52 673.2,0 0,740.52 -336.6,-100.98 z"
         style="fill:#d4e1e8;fill-opacity:1;stroke:none" />
      <path
         id="path3017"
         d="m 640.66,935.51002 0,-656.37 605.88,0 0,656.37 -302.94,-84.15 z"
         style="fill:#83ccdf;fill-opacity:1;stroke:none" />
      <g
         transform="translate(-14.45726,-5.9952405)"
         id="g3821">
        <path
           style="fill:#e8eced;fill-opacity:1;stroke:#48575b;stroke-width:2.5;stroke-linecap:round;stroke-linejoin:round;stroke-miterlimit:4;stroke-opacity:1;stroke-dasharray:none"
           d="m 1000.9096,362.28662 71.5946,81.31728 8.6621,-4.77297 z"
           id="path3797" />
        <path
           style="fill:#e8eced;fill-opacity:1;stroke:#48575b;stroke-width:2.5;stroke-linecap:round;stroke-linejoin:round;stroke-miterlimit:4;stroke-opacity:1;stroke-dasharray:none"
           d="m 1148.2364,490.89678 c 0,-26.41011 -22.2477,-51.88907 -17.2192,-51.88907 8.5843,0 38.6693,20.3297 69.8632,57.60009 44.8625,53.60164 40.3864,97.60984 37.9706,97.60984 -7.4203,0 -13.2413,-36.4273 -36.3375,-69.76093 12.0784,27.40255 1.1811,43.18719 -23.4077,-16.26345 8.6464,29.51866 -5.3242,24.73528 -19.7132,-8.70495 7.5098,25.19638 -3.1983,28.62986 -24.8826,-7.50678 5.5155,2.21599 13.7264,3.52744 13.7264,-1.08475 z"
           id="path3789" />
        <path
           style="fill:#6bb9ad;fill-opacity:1;stroke:#48575b;stroke-width:2.5;stroke-linecap:round;stroke-linejoin:round;stroke-miterlimit:4;stroke-opacity:1;stroke-dasharray:none"
           d="m 954.24059,775.94409 c 34.62155,-32.42278 66.50101,-3.1722 128.15751,-29.84685 36.6975,-15.87657 63.5147,-74.62409 69.4788,-136.32325 l -9.1923,17.32412 c -6.3105,36.3591 -23.7467,67.50554 -55.7577,77.53149 -41.4503,12.98234 -101.81261,32.35222 -132.68631,71.31449 z"
           id="path3799" />
        <path
           style="fill:#e8eced;fill-opacity:1;stroke:#48575b;stroke-width:2.5;stroke-linecap:round;stroke-linejoin:round;stroke-miterlimit:4;stroke-opacity:1;stroke-dasharray:none"
           d="m 1053.25,679.25 c 16.713,-8.33247 22.2604,-27.94887 25.9334,-45.95398 C 1082.703,616.04231 1088.5589,597 1102,597 c 15.2694,0 25.5,40.25 25.5,40.25 l 2.75,-12.25 c 0,0 -3.2487,-45.75 -27.5,-45.75 -17.6321,0 -27.2264,23.93269 -29.3599,47.05587 -1.8627,20.1875 -5.388,38.25902 -20.1401,52.94413 z"
           id="path3793" />
        <path
           style="fill:#e8eced;fill-opacity:1;stroke:#48575b;stroke-width:2.5;stroke-linecap:round;stroke-linejoin:round;stroke-miterlimit:20;stroke-opacity:1;stroke-dasharray:none"
           d="m 991.71726,402.94526 c 28.04144,42.62932 66.74494,78.48188 113.13704,107.83378 l 6.0104,-15.55635 c -47.3729,-19.36212 -84.9025,-53.76688 -119.14744,-92.27743 z"
           id="path3019" />
        <path
           style="fill:#e8eced;fill-opacity:1;stroke:#48575b;stroke-width:2.5;stroke-linecap:round;stroke-linejoin:round;stroke-miterlimit:4;stroke-opacity:1;stroke-dasharray:none"
           d="m 982.83553,739.77809 c 92.02747,-33.61788 174.53067,-78.97952 174.53067,-151.56534 0,-74.39438 -22.6574,-113.23427 -64.8862,-144.78563 l -21.7435,-25.63262 8.6619,19.62222 c -16.8333,-8.50462 -35.2297,-17.92114 -53.9168,-24.57197 l 4.9498,16.08668 c 20.4024,10.22519 26.7563,33.57838 41.896,29.52171 7.6603,6.23372 16.7348,15.67894 22.981,24.74874 -34.0184,66.25853 35.4791,37.50515 35.4791,103.58971 0,68.88262 -51.9727,99.83315 -147.95197,152.9865 z"
           id="path3795" />
        <path
           id="path3819"
           d="m 1053.9213,436.48537 7.9728,9.49137 17.4641,0.56948 c 0,0 -11.3897,-18.98273 -25.4369,-10.06085 z"
           style="fill:#ffffff;stroke:none" />
        <path
           id="path3807"
           d="m 1140.7211,499.6746 c -9.821,-20.56601 -24.4534,-37.21096 -42.4804,-51.72117 2.6725,7.85349 -5.234,16.49996 2.4601,25.51854 2.5074,2.93895 10.1906,3.46238 12.0717,-3.558 -6.0405,31.5397 11.7274,25.61692 14.0286,17.02845 -6.1019,33.50105 18.7207,28.35435 13.92,12.73218 z"
           style="fill:#6bb9ad;fill-opacity:1;stroke:#48575b;stroke-width:2;stroke-linecap:round;stroke-linejoin:round;stroke-miterlimit:4;stroke-opacity:1;stroke-dasharray:none" />
        <path
           style="fill:#6bb9ad;fill-opacity:1;stroke:#48575b;stroke-width:1px;stroke-linecap:butt;stroke-linejoin:miter;stroke-opacity:1"
           d="m 1066.4499,435.3464 c 0.9492,6.83379 -4.1762,10.82017 -4.1762,10.82017 l -8.1625,-9.6812 c 0,0 6.0744,-3.98637 12.3387,-1.13897 z"
           id="path3803" />
        <path
           style="fill:none;stroke:#48575b;stroke-width:2.5;stroke-linecap:round;stroke-linejoin:round;stroke-miterlimit:4;stroke-opacity:1;stroke-dasharray:none"
           d="m 1053.9213,436.48537 7.9728,9.49137 17.4641,0.56948 c 0,0 -11.3897,-18.98273 -25.4369,-10.06085 z"
           id="path3801" />
        <path
           style="fill:none;stroke:#48575b;stroke-width:2;stroke-linecap:round;stroke-linejoin:round;stroke-miterlimit:4;stroke-opacity:1;stroke-dasharray:none"
           d="m 1112.7725,469.91397 c 0.9405,-3.51001 -8.0096,-12.65976 -10.3267,-10.80442 -2.2127,1.7717 -1.4758,13.3976 4.721,11.39422 2.2011,-0.71162 1.2446,-3.72953 -1.7305,-5.80578"
           id="path3809" />
        <path
           style="fill:none;stroke:#48575b;stroke-width:2;stroke-linecap:round;stroke-linejoin:round;stroke-miterlimit:4;stroke-opacity:1;stroke-dasharray:none"
           d="m 1126.8011,486.94242 c 0.8539,-3.18684 -6.8694,-13.97032 -9.57,-12.30138 -3.1624,1.95434 -1.5432,14.63936 2.5531,13.51373 2.924,-0.80348 3.0423,-4.12409 -0.053,-7.55075"
           id="path3811" />
        <path
           style="fill:none;stroke:#48575b;stroke-width:2;stroke-linecap:round;stroke-linejoin:round;stroke-miterlimit:4;stroke-opacity:1;stroke-dasharray:none"
           d="m 1140.7211,499.6746 c -2.4998,-3.53719 -7.3619,-7.75612 -9.8445,-6.22586 -2.7173,1.67491 0.1279,14.55736 4.8588,12.72184 2.935,-1.13875 0.8488,-5.73648 -1.8873,-8.17835"
           id="path3813" />
        <path
           style="fill:none;stroke:#48575b;stroke-width:2.5;stroke-linecap:round;stroke-linejoin:round;stroke-miterlimit:4;stroke-opacity:1;stroke-dasharray:none"
           d="m 1029.0326,423.69465 8.954,6.10401"
           id="path3815" />
        <path
           id="path3817"
           d="m 1072.3274,458.45314 c 2.0462,-0.54827 4.3858,-1.09958 6.3367,-3.03649"
           style="fill:none;stroke:#48575b;stroke-width:2.5;stroke-linecap:round;stroke-linejoin:round;stroke-miterlimit:4;stroke-opacity:1;stroke-dasharray:none" />
        <path
           style="fill:#e8eced;fill-opacity:1;stroke:#48575b;stroke-width:2.5;stroke-linecap:round;stroke-linejoin:round;stroke-miterlimit:4;stroke-opacity:1;stroke-dasharray:none"
           d="m 1104.5,521.25 c -21.6134,-14.86796 -42.726,-18.91992 -42.9303,-13.85257 -0.5575,13.82819 19.3225,22.94472 32.1803,43.35257 -26.2944,-20.60061 -43.7306,-35.4329 -43.259,-49.88544 0.3473,-10.64425 34.8315,-6.32609 55.009,6.63544"
           id="path3791" />
      </g>
      <g
         transform="matrix(-1,0,0,-1,1901.6573,1136.4953)"
         id="g3839">
        <path
           id="path3841"
           d="m 1000.9096,362.28662 71.5946,81.31728 8.6621,-4.77297 z"
           style="fill:#2781ca;fill-opacity:1;stroke:#48575b;stroke-width:2.5;stroke-linecap:round;stroke-linejoin:round;stroke-miterlimit:4;stroke-opacity:1;stroke-dasharray:none" />
        <path
           id="path3843"
           d="m 1148.2364,490.89678 c 0,-26.41011 -22.2477,-51.88907 -17.2192,-51.88907 8.5843,0 38.6693,20.3297 69.8632,57.60009 44.8625,53.60164 40.3864,97.60984 37.9706,97.60984 -7.4203,0 -13.2413,-36.4273 -36.3375,-69.76093 12.0784,27.40255 1.1811,43.18719 -23.4077,-16.26345 8.6464,29.51866 -5.3242,24.73528 -19.7132,-8.70495 7.5098,25.19638 -3.1983,28.62986 -24.8826,-7.50678 5.5155,2.21599 13.7264,3.52744 13.7264,-1.08475 z"
           style="fill:#2781ca;fill-opacity:1;stroke:#48575b;stroke-width:2.5;stroke-linecap:round;stroke-linejoin:round;stroke-miterlimit:4;stroke-opacity:1;stroke-dasharray:none" />
        <path
           id="path3845"
           d="m 954.24059,775.94409 c 34.62155,-32.42278 66.50101,-3.1722 128.15751,-29.84685 36.6975,-15.87657 63.5147,-74.62409 69.4788,-136.32325 l -9.1923,17.32412 c -6.3105,36.3591 -23.7467,67.50554 -55.7577,77.53149 -41.4503,12.98234 -101.81261,32.35222 -132.68631,71.31449 z"
           style="fill:#8338d8;fill-opacity:1;stroke:#48575b;stroke-width:2.5;stroke-linecap:round;stroke-linejoin:round;stroke-miterlimit:4;stroke-opacity:1;stroke-dasharray:none" />
        <path
           id="path3847"
           d="m 1053.25,679.25 c 16.713,-8.33247 22.2604,-27.94887 25.9334,-45.95398 C 1082.703,616.04231 1088.5589,597 1102,597 c 15.2694,0 25.5,40.25 25.5,40.25 l 2.75,-12.25 c 0,0 -3.2487,-45.75 -27.5,-45.75 -17.6321,0 -27.2264,23.93269 -29.3599,47.05587 -1.8627,20.1875 -5.388,38.25902 -20.1401,52.94413 z"
           style="fill:#2781ca;fill-opacity:1;stroke:#48575b;stroke-width:2.5;stroke-linecap:round;stroke-linejoin:round;stroke-miterlimit:4;stroke-opacity:1;stroke-dasharray:none" />
        <path
           id="path3849"
           d="m 991.71726,402.94526 c 28.04144,42.62932 66.74494,78.48188 113.13704,107.83378 l 6.0104,-15.55635 c -47.3729,-19.36212 -84.9025,-53.76688 -119.14744,-92.27743 z"
           style="fill:#2781ca;fill-opacity:1;stroke:#48575b;stroke-width:2.5;stroke-linecap:round;stroke-linejoin:round;stroke-miterlimit:20;stroke-opacity:1;stroke-dasharray:none" />
        <path
           id="path3851"
           d="m 982.83553,739.77809 c 92.02747,-33.61788 174.53067,-78.97952 174.53067,-151.56534 0,-74.39438 -22.6574,-113.23427 -64.8862,-144.78563 l -21.7435,-25.63262 8.6619,19.62222 c -16.8333,-8.50462 -35.2297,-17.92114 -53.9168,-24.57197 l 4.9498,16.08668 c 20.4024,10.22519 26.7563,33.57838 41.896,29.52171 7.6603,6.23372 16.7348,15.67894 22.981,24.74874 -34.0184,66.25853 35.4791,37.50515 35.4791,103.58971 0,68.88262 -51.9727,99.83315 -147.95197,152.9865 z"
           style="fill:#2781ca;fill-opacity:1;stroke:#48575b;stroke-width:2.5;stroke-linecap:round;stroke-linejoin:round;stroke-miterlimit:4;stroke-opacity:1;stroke-dasharray:none" />
        <path
           style="fill:#ffffff;stroke:none"
           d="m 1053.9213,436.48537 7.9728,9.49137 17.4641,0.56948 c 0,0 -11.3897,-18.98273 -25.4369,-10.06085 z"
           id="path3853" />
        <path
           style="fill:#8338d8;fill-opacity:1;stroke:#48575b;stroke-width:2;stroke-linecap:round;stroke-linejoin:round;stroke-miterlimit:4;stroke-opacity:1;stroke-dasharray:none"
           d="m 1140.7211,499.6746 c -9.821,-20.56601 -24.4534,-37.21096 -42.4804,-51.72117 2.6725,7.85349 -5.234,16.49996 2.4601,25.51854 2.5074,2.93895 10.1906,3.46238 12.0717,-3.558 -6.0405,31.5397 11.7274,25.61692 14.0286,17.02845 -6.1019,33.50105 18.7207,28.35435 13.92,12.73218 z"
           id="path3855" />
        <path
           id="path3857"
           d="m 1066.4499,435.3464 c 0.9492,6.83379 -4.1762,10.82017 -4.1762,10.82017 l -8.1625,-9.6812 c 0,0 6.0744,-3.98637 12.3387,-1.13897 z"
           style="fill:#8338d8;fill-opacity:1;stroke:#48575b;stroke-width:1px;stroke-linecap:butt;stroke-linejoin:miter;stroke-opacity:1" />
        <path
           id="path3859"
           d="m 1053.9213,436.48537 7.9728,9.49137 17.4641,0.56948 c 0,0 -11.3897,-18.98273 -25.4369,-10.06085 z"
           style="fill:none;stroke:#48575b;stroke-width:2.5;stroke-linecap:round;stroke-linejoin:round;stroke-miterlimit:4;stroke-opacity:1;stroke-dasharray:none" />
        <path
           id="path3861"
           d="m 1112.7725,469.91397 c 0.9405,-3.51001 -8.0096,-12.65976 -10.3267,-10.80442 -2.2127,1.7717 -1.4758,13.3976 4.721,11.39422 2.2011,-0.71162 1.2446,-3.72953 -1.7305,-5.80578"
           style="fill:none;stroke:#48575b;stroke-width:2;stroke-linecap:round;stroke-linejoin:round;stroke-miterlimit:4;stroke-opacity:1;stroke-dasharray:none" />
        <path
           id="path3863"
           d="m 1126.8011,486.94242 c 0.8539,-3.18684 -6.8694,-13.97032 -9.57,-12.30138 -3.1624,1.95434 -1.5432,14.63936 2.5531,13.51373 2.924,-0.80348 3.0423,-4.12409 -0.053,-7.55075"
           style="fill:none;stroke:#48575b;stroke-width:2;stroke-linecap:round;stroke-linejoin:round;stroke-miterlimit:4;stroke-opacity:1;stroke-dasharray:none" />
        <path
           id="path3865"
           d="m 1140.7211,499.6746 c -2.4998,-3.53719 -7.3619,-7.75612 -9.8445,-6.22586 -2.7173,1.67491 0.1279,14.55736 4.8588,12.72184 2.935,-1.13875 0.8488,-5.73648 -1.8873,-8.17835"
           style="fill:none;stroke:#48575b;stroke-width:2;stroke-linecap:round;stroke-linejoin:round;stroke-miterlimit:4;stroke-opacity:1;stroke-dasharray:none" />
        <path
           id="path3867"
           d="m 1029.0326,423.69465 8.954,6.10401"
           style="fill:none;stroke:#48575b;stroke-width:2.5;stroke-linecap:round;stroke-linejoin:round;stroke-miterlimit:4;stroke-opacity:1;stroke-dasharray:none" />
        <path
           style="fill:none;stroke:#48575b;stroke-width:2.5;stroke-linecap:round;stroke-linejoin:round;stroke-miterlimit:4;stroke-opacity:1;stroke-dasharray:none"
           d="m 1072.3274,458.45314 c 2.0462,-0.54827 4.3858,-1.09958 6.3367,-3.03649"
           id="path3869" />
        <path
           id="path3871"
           d="m 1104.5,521.25 c -21.6134,-14.86796 -42.726,-18.91992 -42.9303,-13.85257 -0.5575,13.82819 19.3225,22.94472 32.1803,43.35257 -26.2944,-20.60061 -43.7306,-35.4329 -43.259,-49.88544 0.3473,-10.64425 34.8315,-6.32609 55.009,6.63544"
           style="fill:#2781ca;fill-opacity:1;stroke:#48575b;stroke-width:2.5;stroke-linecap:round;stroke-linejoin:round;stroke-miterlimit:4;stroke-opacity:1;stroke-dasharray:none" />
      </g>
      <g
         transform="translate(-2.4,12.27002)"
         id="g4051">
        <path
           style="fill:#f6b02f;fill-opacity:1;stroke:none"
           d="m 973.42282,475.97315 c 4.2953,-31.94631 24.11176,-21.7394 28.45638,-15.83893 10.7789,14.63895 19.856,-1.48558 11.2752,-8.59059 16.8816,7.64653 5.4536,34.18298 -5.9061,31.40939 -22.16675,-5.41222 -29.53018,11.00671 -29.53018,11.00671 z"
           id="path4008" />
        <path
           id="path4010"
           d="m 956.17949,460.39776 c -19.55222,-25.62668 1.67751,-32.42166 8.92188,-31.32151 17.97314,2.72947 12.98985,-15.09078 1.89831,-14.04723 17.34401,-6.53019 28.02729,20.31473 18.03355,26.38603 -19.50128,11.84724 -13.09807,28.66391 -13.09807,28.66391 z"
           style="fill:#f6b02f;fill-opacity:1;stroke:none" />
        <path
           style="fill:#f6b02f;fill-opacity:1;stroke:none"
           d="m 932.97315,461.57718 c -31.94631,-4.2953 -21.7394,-24.11176 -15.83893,-28.45638 14.63895,-10.7789 -1.48558,-19.856 -8.59059,-11.2752 7.64653,-16.8816 34.18298,-5.4536 31.40939,5.9061 -5.41222,22.16675 11.00671,29.53018 11.00671,29.53018 z"
           id="path4012" />
        <path
           id="path4014"
           d="m 917.39776,478.82051 c -25.62668,19.55222 -32.42166,-1.67751 -31.32151,-8.92188 2.72947,-17.97314 -15.09078,-12.98985 -14.04723,-1.89831 -6.53018,-17.34401 20.31474,-28.02729 26.38603,-18.03355 11.84724,19.50128 28.66391,13.09807 28.66391,13.09807 z"
           style="fill:#f6b02f;fill-opacity:1;stroke:none" />
        <path
           style="fill:#f6b02f;fill-opacity:1;stroke:none"
           d="m 918.57718,502.02685 c -4.2953,31.94631 -24.11176,21.7394 -28.45638,15.83893 -10.7789,-14.63895 -19.856,1.48558 -11.2752,8.59059 -16.8816,-7.64653 -5.4536,-34.18298 5.9061,-31.40939 22.16675,5.41222 29.53018,-11.00671 29.53018,-11.00671 z"
           id="path4016" />
        <path
           id="path4018"
           d="m 935.82051,517.60224 c 19.55222,25.62668 -1.67751,32.42166 -8.92188,31.32151 -17.97314,-2.72947 -12.98985,15.09078 -1.89831,14.04723 -17.344,6.53019 -28.02729,-20.31473 -18.03355,-26.38603 19.50128,-11.84724 13.09807,-28.66391 13.09807,-28.66391 z"
           style="fill:#f6b02f;fill-opacity:1;stroke:none" />
        <path
           style="fill:#f6b02f;fill-opacity:1;stroke:none"
           d="m 959.02685,516.42282 c 31.94631,4.2953 21.7394,24.11176 15.83893,28.45638 -14.63895,10.7789 1.48558,19.856 8.59059,11.2752 -7.64653,16.8816 -34.18298,5.4536 -31.40939,-5.9061 5.41222,-22.16675 -11.00671,-29.53018 -11.00671,-29.53018 z"
           id="path4020" />
        <path
           id="path4022"
           d="m 974.60224,499.17949 c 25.62666,-19.55222 32.42166,1.67751 31.32156,8.92188 -2.7295,17.97314 15.0907,12.98985 14.0472,1.89831 6.5302,17.34401 -20.31475,28.02729 -26.38605,18.03355 -11.84724,-19.50128 -28.66391,-13.09807 -28.66391,-13.09807 z"
           style="fill:#f6b02f;fill-opacity:1;stroke:none" />
        <path
           style="fill:#ecea91;fill-opacity:1;stroke:none"
           id="path4006"
           d="m 983,489 c 0,20.43454 -16.56546,37 -37,37 -20.43454,0 -37,-16.56546 -37,-37 0,-20.43454 16.56546,-37 37,-37 20.43454,0 37,16.56546 37,37 z" />
      </g>
      <g
         transform="translate(-8.4,6.9100195)"
         id="g4047">
        <path
           style="fill:#ffffff;fill-opacity:1;stroke:none"
           id="path4035"
           d="m 1004.5,644.5 c 0,28.99495 -23.50505,52.5 -52.5,52.5 -28.99495,0 -52.5,-23.50505 -52.5,-52.5 0,-28.99495 23.50505,-52.5 52.5,-52.5 28.99495,0 52.5,23.50505 52.5,52.5 z" />
        <path
           style="fill:#aa7ee2;fill-opacity:1;stroke:none"
           id="path4039"
           d="m 980.5,644.5 c 0,25.68124 -20.81876,46.5 -46.5,46.5 -25.68124,0 -46.5,-20.81876 -46.5,-46.5 0,-25.68124 20.81876,-46.5 46.5,-46.5 25.68124,0 46.5,20.81876 46.5,46.5 z"
           clip-path="url(#clipPath4043)" />
      </g>
      <path
         transform="translate(1.0613895,-16.474148)"
         d="m 684.89697,680.54497 4.43422,13.69719 14.39705,-0.0155 -11.65656,8.44985 4.46365,13.68763 -11.63836,-8.47489 -11.63836,8.47489 4.46365,-13.68763 -11.65655,-8.44985 14.39705,0.0155 z"
         id="path4092"
         style="fill:#ffffff;fill-opacity:1;stroke:none" />
      <use
         height="1080"
         width="1920"
         transform="translate(0,67.32)"
         id="use4370"
         xlink:href="#path4092"
         y="0"
         x="0" />
      <use
         height="1080"
         width="1920"
         transform="translate(0,134.64)"
         id="use4372"
         xlink:href="#path4092"
         y="0"
         x="0" />
      <use
         height="1080"
         width="1920"
         transform="translate(0,201.96)"
         id="use4374"
         xlink:href="#path4092"
         y="0"
         x="0" />
      <use
         height="1080"
         width="1920"
         transform="translate(60.115853,38.952005)"
         id="use4378"
         xlink:href="#path4092"
         y="0"
         x="0" />
      <use
         height="1080"
         width="1920"
         transform="translate(60.115853,106.272)"
         id="use4380"
         xlink:href="#path4092"
         y="0"
         x="0" />
      <use
         height="1080"
         width="1920"
         transform="translate(60.115853,173.592)"
         id="use4382"
         xlink:href="#path4092"
         y="0"
         x="0" />
      <use
         height="1080"
         width="1920"
         transform="translate(117.81,84.15)"
         id="use4384"
         xlink:href="#path4092"
         y="0"
         x="0" />
      <use
         height="1080"
         width="1920"
         transform="translate(117.81,151.47)"
         id="use4386"
         xlink:href="#path4092"
         y="0"
         x="0" />
      <use
         height="1080"
         width="1920"
         transform="translate(177.92585,123.102)"
         id="use4388"
         xlink:href="#path4092"
         y="0"
         x="0" />
      <use
         height="1080"
         width="1920"
         transform="translate(257.64164,119.96919)"
         id="use4390"
         xlink:href="#path4092"
         y="0"
         x="0" />
      <use
         height="1080"
         width="1920"
         transform="translate(337.35742,123.102)"
         id="use4392"
         xlink:href="#path4092"
         y="0"
         x="0" />
      <use
         height="1080"
         width="1920"
         transform="translate(397.47328,84.15)"
         id="use4394"
         xlink:href="#path4092"
         y="0"
         x="0" />
      <use
         height="1080"
         width="1920"
         transform="translate(397.47328,151.47)"
         id="use4396"
         xlink:href="#path4092"
         y="0"
         x="0" />
      <use
         height="1080"
         width="1920"
         transform="translate(455.16742,38.952005)"
         id="use4398"
         xlink:href="#path4092"
         y="0"
         x="0" />
      <use
         height="1080"
         width="1920"
         transform="translate(455.16742,106.272)"
         id="use4400"
         xlink:href="#path4092"
         y="0"
         x="0" />
      <use
         height="1080"
         width="1920"
         transform="translate(455.16742,173.592)"
         id="use4402"
         xlink:href="#path4092"
         y="0"
         x="0" />
      <use
         height="1080"
         width="1920"
         transform="translate(515.28328,201.96)"
         id="use4404"
         xlink:href="#path4092"
         y="0"
         x="0" />
      <use
         height="1080"
         width="1920"
         transform="translate(515.28328,134.64)"
         id="use4406"
         xlink:href="#path4092"
         y="0"
         x="0" />
      <use
         height="1080"
         width="1920"
         transform="translate(515.28328,67.32)"
         id="use4408"
         xlink:href="#path4092"
         y="0"
         x="0" />
      <use
         height="1080"
         width="1920"
         transform="translate(515.28328,-2.9384864e-7)"
         id="use4410"
         xlink:href="#path4092"
         y="0"
         x="0" />
      <use
         height="1080"
         width="1920"
         transform="translate(515.28328,-67.32)"
         id="use4412"
         xlink:href="#path4092"
         y="0"
         x="0" />
      <use
         height="1080"
         width="1920"
         transform="translate(-4.7803724e-8,-168.3)"
         id="use4414"
         xlink:href="#path4092"
         y="0"
         x="0" />
      <use
         height="1080"
         width="1920"
         transform="translate(-4.7803724e-8,-235.62)"
         id="use4416"
         xlink:href="#path4092"
         y="0"
         x="0" />
      <use
         height="1080"
         width="1920"
         transform="translate(46.026347,-272.42238)"
         id="use4418"
         xlink:href="#path4092"
         y="0"
         x="0" />
      <use
         height="1080"
         width="1920"
         transform="translate(-4.7803724e-8,-302.94)"
         id="use4420"
         xlink:href="#path4092"
         y="0"
         x="0" />
      <use
         height="1080"
         width="1920"
         transform="translate(96.516346,-322.91238)"
         id="use4422"
         xlink:href="#path4092"
         y="0"
         x="0" />
      <use
         height="1080"
         width="1920"
         transform="translate(-4.7803724e-8,-370.26)"
         id="use4424"
         xlink:href="#path4092"
         y="0"
         x="0" />
      <use
         height="1080"
         width="1920"
         transform="translate(67.32,-370.26)"
         id="use4426"
         xlink:href="#path4092"
         y="0"
         x="0" />
      <use
         height="1080"
         width="1920"
         transform="translate(134.64,-370.26)"
         id="use4428"
         xlink:href="#path4092"
         y="0"
         x="0" />
      <use
         height="1080"
         width="1920"
         transform="translate(201.96,-370.26)"
         id="use4430"
         xlink:href="#path4092"
         y="0"
         x="0" />
      <use
         height="1080"
         width="1920"
         transform="translate(313.32328,-370.26)"
         id="use4432"
         xlink:href="#path4092"
         y="0"
         x="0" />
      <use
         height="1080"
         width="1920"
         transform="translate(380.64328,-370.26)"
         id="use4434"
         xlink:href="#path4092"
         y="0"
         x="0" />
      <use
         height="1080"
         width="1920"
         transform="translate(380.64328,-319.77)"
         id="use4436"
         xlink:href="#path4092"
         y="0"
         x="0" />
      <use
         height="1080"
         width="1920"
         transform="translate(447.96328,-269.28)"
         id="use4438"
         xlink:href="#path4092"
         y="0"
         x="0" />
      <use
         height="1080"
         width="1920"
         transform="translate(447.96328,-370.26)"
         id="use4440"
         xlink:href="#path4092"
         y="0"
         x="0" />
      <use
         height="1080"
         width="1920"
         transform="translate(447.96328,-319.77)"
         id="use4442"
         xlink:href="#path4092"
         y="0"
         x="0" />
      <use
         height="1080"
         width="1920"
         transform="translate(515.28328,-218.79)"
         id="use4444"
         xlink:href="#path4092"
         y="0"
         x="0" />
      <use
         height="1080"
         width="1920"
         transform="translate(515.28328,-269.28)"
         id="use4446"
         xlink:href="#path4092"
         y="0"
         x="0" />
      <use
         height="1080"
         width="1920"
         transform="translate(515.28328,-319.77)"
         id="use4448"
         xlink:href="#path4092"
         y="0"
         x="0" />
      <use
         height="1080"
         width="1920"
         transform="translate(515.28328,-370.26)"
         id="use4450"
         xlink:href="#path4092"
         y="0"
         x="0" />
    </g>
  </g>
</svg>
