<?xml version="1.0" standalone="no"?><!DOCTYPE svg PUBLIC "-//W3C//DTD SVG 1.1//EN" "http://www.w3.org/Graphics/SVG/1.1/DTD/svg11.dtd"><svg t="1695975028427" class="icon" viewBox="0 0 1024 1024" version="1.1" xmlns="http://www.w3.org/2000/svg" p-id="7213" xmlns:xlink="http://www.w3.org/1999/xlink" width="200" height="200"><path d="M544.644295 6.872483c63.00349 0 129.50851 12.088698 173.186577 51.962846 70.346738 64.216483 60.756188 119.141369 60.756188 119.141369s107.093906 9.439356 156.764779 101.104537C997.843329 394.40494 943.248322 463.892617 943.248322 463.892617s41.169611 52.629477 27.661745 120.306255C932.668134 775.759034 748.090416 893.422819 544.644295 893.422819c-235.324134 0-470.765101-139.226201-470.7651-374.550336 0-105.458255 92.434899-171.901423 92.434899-171.901423s-32.792054-70.786577 13.525047-175.468241C234.55098 47.829047 382.515544 6.872483 544.644295 6.872483z" fill="#1BD86B" p-id="7214"></path><path d="M947.430228 304.048966s-7.425718-16.390872-12.074953-24.971167c-49.670872-91.661745-156.764779-101.104537-156.764778-101.104537s9.59055-54.92145-60.759625-119.137933C674.152805 18.961181 607.647785 6.872483 544.644295 6.872483 382.515544 6.872483 234.55098 47.829047 179.828832 171.502819 133.511732 276.181047 166.314094 346.97106 166.314094 346.97106S73.879195 413.414228 73.879195 518.872483a319.618577 319.618577 0 0 0 51.103785 175.530094c11.487356 17.851275 39.344966 50.224107 39.344966 50.224108s163.541047-188.01396 355.097772-295.784806c199.820886-112.433826 428.00451-144.792913 428.00451-144.792913z" fill="#4CF092" p-id="7215"></path><path d="M553.764081 355.651007s31.321342 444.450362 34.362416 596.187919c1.144268 57.155007 58.416107 70.442953 58.416107 70.442953h-209.610738s62.996617-7.559732 65.28859-70.442953c5.525477-151.665396 37.798658-596.187919 37.798658-596.187919h13.744967z" fill="#894E14" p-id="7216"></path><path d="M735.218255 355.651007c5.047839 4.621745 5.415517 2.175141 0.824698 7.253906l-175.96306 208.380564c-4.590819 5.075329-12.404832 2.010201-17.449235-2.608108-5.047839-4.621745-5.415517-19.356349-0.824698-24.435114l186.271785-184.326872c4.590819-5.06502 2.096107-8.872376 7.14051-4.264376z" fill="#894E14" p-id="7217"></path><path d="M341.18443 544.644295c-5.044403 4.621745-1.979275 5.611383 2.611543 10.690148l179.399302 232.434255c4.590819 5.075329 5.532349-1.42604 10.576752-19.789315v-3.436242c5.047839-4.621745 5.415517-33.101315 0.824698-38.180081l-182.835544-180.880322c-4.590819-5.075329-5.532349-5.446443-10.576751-0.838443z" fill="#894E14" p-id="7218"></path></svg>